<?xml version="1.0" standalone="no"?>
<!DOCTYPE svg PUBLIC "-//W3C//DTD SVG 20010904//EN"
 "http://www.w3.org/TR/2001/REC-SVG-20010904/DTD/svg10.dtd">
<svg version="1.0" xmlns="http://www.w3.org/2000/svg"
 width="2506.000000pt" height="2506.000000pt" viewBox="0 0 2506.000000 2506.000000"
 preserveAspectRatio="xMidYMid meet">
<metadata>
Created by potrace 1.11, written by Peter Selinger 2001-2013
</metadata>
<g transform="translate(0.000000,2506.000000) scale(0.100000,-0.100000)"
fill="#000000" stroke="none">
<path d="M3530 23253 c-30 -1 -284 -4 -565 -6 -280 -2 -526 -7 -545 -11 -40
-8 -124 -24 -158 -31 -57 -10 -197 -58 -289 -98 -476 -207 -842 -635 -967
-1132 -26 -101 -29 -118 -45 -235 -21 -151 -6 -426 31 -575 7 -27 11 -54 10
-58 -1 -4 5 -21 13 -37 9 -17 13 -30 10 -30 -3 0 4 -22 14 -50 11 -27 16 -50
13 -50 -4 0 -1 -4 5 -8 7 -4 14 -17 16 -27 2 -11 8 -30 15 -41 6 -12 8 -24 5
-28 -3 -3 -1 -6 6 -6 7 0 9 -4 6 -10 -3 -5 -1 -10 5 -10 7 0 9 -7 6 -16 -3 -8
-2 -12 4 -9 6 3 10 -3 10 -14 0 -12 5 -21 11 -21 6 0 8 -7 5 -16 -3 -8 -2 -13
2 -10 4 3 14 -4 21 -16 10 -16 10 -19 -1 -12 -7 4 -5 -2 5 -13 9 -11 14 -23
10 -27 -5 -4 -3 -7 2 -6 21 5 29 -1 15 -10 -13 -8 -13 -10 2 -10 9 0 19 -8 23
-19 3 -10 14 -29 25 -41 11 -12 17 -27 14 -32 -3 -4 0 -7 7 -6 6 2 14 -3 17
-11 3 -9 0 -11 -9 -6 -8 5 -5 -1 5 -13 21 -25 36 -31 16 -7 -7 9 -8 15 -2 15
13 0 24 -29 15 -43 -3 -7 -3 -9 1 -5 9 7 44 -22 44 -36 0 -5 5 -12 11 -15 8
-5 11 -1681 11 -5860 0 -4198 3 -5858 11 -5873 6 -11 7 -18 2 -15 -5 3 -9 -3
-9 -13 0 -15 3 -17 15 -7 12 10 13 9 7 -2 -11 -18 -14 -91 -4 -85 4 3 6 -9 4
-26 -2 -17 0 -32 3 -35 4 -2 6 -18 5 -34 -1 -17 1 -31 5 -31 4 0 8 -15 9 -32
3 -33 9 -73 12 -73 3 0 9 -39 12 -67 1 -16 6 -28 11 -28 5 0 7 -9 4 -20 -3
-11 -1 -20 5 -20 5 0 6 -4 3 -10 -3 -5 -1 -10 6 -10 8 0 9 -3 0 -14 -9 -10 -8
-16 3 -25 8 -7 12 -19 9 -27 -3 -8 -1 -14 5 -14 6 0 9 -8 8 -17 -2 -9 3 -28
10 -42 7 -13 11 -28 8 -33 -3 -4 0 -8 5 -8 6 0 10 -3 10 -7 -1 -5 0 -10 1 -13
4 -13 12 -47 13 -62 1 -10 8 -18 17 -18 13 0 13 -1 0 -10 -11 -7 -11 -10 -2
-10 7 0 10 -4 7 -10 -3 -5 -1 -10 5 -10 6 0 8 -4 5 -10 -3 -5 -2 -10 4 -10 6
0 8 -7 5 -15 -4 -8 -1 -15 5 -15 6 0 11 -6 11 -13 0 -18 23 -67 32 -67 4 0 5
-7 2 -15 -4 -8 -1 -15 5 -15 6 0 11 -3 10 -7 -2 -16 14 -53 22 -53 5 0 8 -3 7
-7 -2 -7 17 -47 54 -115 8 -15 17 -26 19 -23 3 2 6 -6 6 -18 1 -12 7 -23 13
-25 5 -2 10 -9 10 -17 0 -7 7 -18 15 -25 9 -7 13 -15 11 -17 -8 -8 18 -31 28
-25 5 3 6 0 3 -5 -4 -6 2 -21 13 -33 11 -12 18 -26 15 -29 -2 -4 5 -14 16 -21
10 -8 19 -20 19 -27 0 -7 5 -13 10 -13 6 0 10 -7 10 -16 0 -8 4 -12 10 -9 5 3
10 0 10 -7 0 -7 16 -31 35 -53 19 -22 39 -45 44 -51 5 -7 7 -15 4 -18 -4 -3 1
-6 10 -6 8 0 19 -9 22 -20 4 -11 11 -18 16 -15 5 4 9 1 9 -5 0 -7 13 -25 30
-40 16 -15 30 -33 30 -40 0 -6 3 -9 7 -7 9 5 34 -18 27 -25 -2 -3 7 -11 21
-18 14 -7 25 -20 25 -28 0 -9 3 -12 7 -9 3 4 23 -11 45 -32 21 -22 38 -37 38
-34 0 3 9 -5 20 -18 10 -13 19 -21 20 -17 0 4 14 -7 31 -25 17 -17 32 -30 32
-27 1 2 12 -5 25 -15 12 -11 25 -18 27 -15 3 3 12 -5 20 -17 9 -13 21 -23 26
-23 6 0 17 -6 24 -13 33 -29 45 -37 53 -37 5 0 15 -7 22 -15 7 -8 16 -12 21
-9 5 3 9 1 9 -4 0 -9 50 -37 63 -34 4 1 7 -3 7 -8 0 -6 6 -10 14 -10 8 0 16
-5 18 -10 2 -6 14 -12 27 -15 14 -2 27 -8 30 -13 3 -5 18 -12 34 -16 15 -3 27
-11 27 -16 0 -6 9 -10 20 -10 11 0 20 -4 20 -10 0 -5 5 -10 11 -10 5 0 7 6 4
13 -4 6 1 3 10 -8 9 -11 21 -19 27 -17 6 1 21 -4 34 -13 13 -8 35 -15 49 -15
15 0 24 -4 20 -10 -3 -6 4 -10 17 -10 13 0 30 -6 37 -13 10 -9 12 -9 7 0 -5 8
2 8 20 -2 15 -8 31 -12 36 -9 4 3 8 0 8 -5 0 -6 5 -11 11 -11 5 0 7 6 3 13 -4
6 2 3 14 -7 12 -11 22 -15 22 -11 0 5 5 4 12 -3 9 -9 15 -9 27 1 12 9 13 9 7
0 -5 -9 0 -13 17 -13 13 0 27 -3 30 -7 4 -3 24 -8 44 -10 20 -2 44 -9 52 -16
12 -9 13 -9 7 1 -4 6 -2 12 3 12 6 0 11 -4 11 -10 0 -5 5 -10 11 -10 5 0 7 6
3 13 -6 8 -3 8 9 -2 9 -7 23 -11 32 -8 8 4 17 2 20 -3 3 -5 19 -7 35 -5 17 2
30 -1 30 -7 0 -7 4 -7 13 1 8 6 17 7 21 3 4 -4 12 -8 17 -8 5 -1 1205 -2 2667
-3 l2657 -2 95 -115 c52 -63 102 -123 110 -132 9 -9 63 -73 120 -142 58 -69
107 -127 110 -130 3 -3 39 -45 81 -95 125 -149 300 -358 323 -385 11 -14 46
-54 76 -90 30 -36 65 -76 76 -90 12 -14 97 -115 190 -225 92 -110 170 -202
173 -205 4 -3 26 -30 51 -60 25 -30 119 -143 210 -250 182 -215 307 -364 330
-393 8 -11 20 -24 26 -31 9 -9 248 -293 663 -786 58 -69 110 -130 116 -136 5
-7 51 -60 100 -120 50 -59 131 -155 180 -213 50 -58 121 -144 160 -191 38 -47
72 -87 75 -90 3 -3 31 -35 62 -72 l56 -67 54 61 c84 98 130 150 178 208 25 29
54 63 65 76 11 12 29 33 39 46 11 13 45 52 75 88 31 35 66 76 77 90 48 56 169
198 214 250 26 30 93 109 150 175 56 66 114 134 129 150 14 17 49 57 76 90 28
33 64 76 82 95 17 19 42 48 55 65 13 16 30 37 38 46 8 8 38 42 65 74 28 33 66
78 85 100 20 22 49 56 64 75 16 19 52 62 81 95 29 33 110 128 180 210 70 83
149 175 175 205 26 30 107 125 180 210 73 85 152 178 175 205 24 28 103 120
175 205 73 85 169 198 214 250 44 52 90 105 101 119 11 13 25 29 30 35 6 6 75
88 155 181 79 94 147 172 150 175 8 6 267 311 329 386 l44 54 2931 1 c1612 1
2939 0 2950 -1 10 -1 23 4 27 12 7 10 9 10 9 0 0 -10 5 -10 21 -1 13 6 19 7
15 1 -6 -10 10 -11 29 -2 6 3 21 5 35 5 14 0 31 7 38 15 8 8 11 9 7 2 -4 -8 1
-11 17 -8 13 3 23 5 23 6 0 1 14 3 30 5 17 1 36 3 43 4 8 0 10 6 6 14 -5 9 -4
9 6 0 9 -8 19 -9 32 -2 10 5 22 8 27 5 5 -3 14 0 20 8 6 7 24 12 41 11 16 -1
30 1 30 4 0 4 10 7 21 8 12 1 31 10 42 20 11 10 17 12 12 4 -9 -15 20 -9 68
16 15 7 32 11 37 8 6 -3 10 -1 10 4 0 6 4 11 9 11 5 0 20 4 33 9 13 5 28 9 33
11 6 1 18 9 27 17 10 9 18 13 18 9 0 -4 10 -1 23 6 12 7 29 11 37 9 8 -2 12 0
8 4 -6 7 131 79 141 75 2 -1 8 5 13 14 5 9 13 14 19 11 5 -4 12 1 15 9 3 9 10
13 15 10 5 -3 9 -1 9 3 0 5 17 17 37 28 21 11 46 28 56 38 10 10 22 15 27 12
5 -3 11 4 15 15 4 11 10 18 14 15 4 -2 17 5 29 15 12 11 25 20 29 20 5 0 14 9
21 20 7 11 17 20 23 20 5 0 23 15 40 32 16 18 29 29 29 25 0 -4 31 24 69 62
39 38 72 67 75 64 2 -2 7 4 10 15 4 11 14 23 22 26 9 3 12 11 8 17 -4 7 -3 9
3 6 6 -4 19 5 29 19 11 14 30 38 44 53 57 63 80 91 80 101 0 5 5 10 10 10 6 0
10 7 10 16 0 8 4 13 8 10 5 -3 15 7 23 22 8 15 19 32 24 39 6 7 15 19 22 27 6
7 9 16 6 20 -3 3 2 8 11 12 9 3 16 10 16 15 0 4 13 28 29 51 16 24 27 46 25
49 -2 4 3 9 11 13 8 3 15 12 15 20 0 8 6 21 13 28 13 14 60 110 57 117 -1 2 2
7 7 10 15 11 34 52 28 61 -4 6 1 10 9 10 10 0 13 6 10 15 -4 8 -1 15 6 15 6 0
9 4 6 9 -3 5 4 21 16 37 13 15 16 24 8 19 -12 -7 -13 -6 -3 7 7 8 10 18 6 21
-3 4 -1 7 5 7 7 0 11 3 11 8 -1 4 0 10 1 15 1 4 3 10 5 15 4 17 26 68 34 83 5
9 13 33 16 53 4 20 11 36 17 36 5 0 6 5 3 10 -4 6 -1 18 7 27 11 14 11 16 -1
9 -9 -6 -8 -1 3 16 9 14 13 28 10 31 -4 4 -1 13 6 22 7 8 10 15 7 15 -3 0 1
22 8 48 8 27 17 64 19 83 3 19 5 34 6 34 1 0 4 14 6 30 3 17 9 34 15 40 5 5 9
14 9 20 0 5 -5 3 -11 -5 -9 -12 -9 -11 -3 5 4 11 7 36 8 55 1 19 8 40 16 46
11 10 12 15 2 27 -8 10 -9 17 -3 21 6 4 8 13 4 21 -3 9 0 22 6 29 8 9 8 16 2
20 -6 4 -6 18 -1 37 6 19 9 2549 9 6065 1 4761 -2 6034 -12 6037 -9 4 -9 6 1
6 10 1 10 6 1 22 -6 12 -7 19 -2 16 5 -4 10 0 10 8 0 8 -4 12 -8 9 -4 -2 -7 8
-5 23 1 16 -1 36 -6 46 -5 9 -5 17 0 17 5 0 9 7 9 15 0 8 -4 12 -9 9 -9 -6 -9
-6 -12 56 -1 25 -5 56 -9 70 -3 14 -9 42 -12 63 -3 21 -10 47 -16 58 -5 11 -7
24 -4 30 4 5 1 16 -5 24 -7 8 -10 15 -7 15 3 0 1 15 -5 33 -5 17 -11 42 -13
55 -2 13 -9 30 -17 39 -11 14 -11 16 2 8 12 -7 13 -6 4 6 -6 8 -17 34 -24 59
-7 25 -18 51 -23 58 -5 6 -7 12 -3 12 4 0 0 14 -9 30 -9 17 -12 30 -9 30 4 0
-1 10 -12 22 -12 13 -13 18 -4 13 12 -7 12 -5 -1 11 -9 10 -14 25 -11 33 3 9
0 11 -8 6 -9 -6 -11 -4 -6 4 5 7 0 21 -11 33 -12 14 -13 19 -3 13 10 -6 10 -2
-3 12 -10 11 -17 27 -15 34 2 8 -3 13 -9 12 -7 -2 -12 0 -10 5 3 11 -35 95
-48 104 -5 4 -6 8 -1 8 5 0 3 7 -4 15 -7 8 -9 15 -4 15 5 0 1 5 -9 11 -9 6
-15 14 -12 20 4 5 1 9 -4 9 -6 0 -11 7 -11 15 0 8 -4 15 -10 15 -5 0 -10 7
-10 15 0 8 -5 15 -11 15 -5 0 -8 4 -5 9 3 5 -8 25 -24 46 -16 21 -27 41 -24
46 3 5 -2 9 -10 9 -9 0 -15 3 -14 8 3 10 -35 72 -44 72 -4 0 -8 7 -8 15 0 8
-9 20 -20 27 -11 7 -20 17 -20 23 0 9 -17 31 -76 98 -13 15 -21 27 -17 27 5 0
-5 9 -22 20 -16 11 -26 20 -22 20 5 0 -41 48 -101 108 -116 113 -169 162 -177
162 -3 0 -13 8 -24 18 -10 9 -31 26 -45 37 -15 11 -36 28 -47 38 -11 10 -24
15 -29 12 -6 -4 -10 1 -10 9 0 8 -5 18 -12 22 -7 5 -8 3 -3 -6 8 -13 -55 31
-83 58 -8 7 -18 10 -23 6 -5 -3 -12 2 -15 10 -3 9 -10 13 -15 10 -5 -3 -12 2
-15 10 -3 9 -15 16 -25 16 -10 0 -19 5 -19 11 0 5 -5 7 -10 4 -6 -3 -12 0 -15
7 -3 8 -15 15 -27 15 -12 1 -24 6 -27 11 -6 9 -45 26 -47 20 -1 -2 -12 6 -25
17 -14 13 -20 14 -15 5 4 -8 0 -6 -8 4 -12 15 -16 16 -16 5 0 -9 -3 -10 -8 -3
-4 6 -21 19 -39 27 -24 13 -33 14 -36 4 -3 -6 -6 -3 -6 7 -1 11 -4 17 -7 14
-3 -4 -20 0 -39 7 -18 8 -35 11 -39 8 -3 -4 -6 -1 -6 5 0 7 -12 12 -26 12 -14
0 -23 4 -20 8 2 4 -3 8 -12 9 -43 2 -72 8 -72 14 0 6 -10 8 -55 11 -14 1 -25
6 -25 11 0 5 -9 7 -20 4 -11 -3 -20 -1 -20 4 0 4 -7 5 -17 2 -12 -5 -14 -3 -8
8 8 12 6 12 -8 0 -12 -9 -17 -10 -17 -2 0 7 -5 9 -10 6 -6 -4 -17 -1 -25 5
-12 10 -15 10 -15 -1 0 -11 -2 -11 -8 -1 -5 7 -22 10 -40 8 -18 -2 -32 1 -32
6 0 6 -6 8 -14 5 -7 -3 -19 0 -26 6 -10 9 -11 9 -6 0 9 -16 1 -16 -26 -2 -16
8 -19 8 -13 -1 6 -9 3 -9 -13 -1 -15 8 -2569 10 -9074 9 -4979 -1 -9078 -3
-9108 -5z"/>
</g>
</svg>
